<svg xmlns="http://www.w3.org/2000/svg" width="512" height="512" viewBox="0 0 512 512" role="img" aria-labelledby="title desc">
  <title id="title">Tachles Gym logo</title>
  <desc id="desc">A premium monogram logo for Tachles Gym</desc>
  <defs>
    <linearGradient id="g" x1="0" x2="1" y1="0" y2="1">
      <stop offset="0" stop-color="#f7c948"/>
      <stop offset="1" stop-color="#ffdf7a"/>
    </linearGradient>
    <filter id="s" x="-20%" y="-20%" width="140%" height="140%">
      <feDropShadow dx="0" dy="16" stdDeviation="20" flood-color="#000" flood-opacity=".35"/>
    </filter>
  </defs>
  <rect width="512" height="512" rx="116" fill="#080a0d"/>
  <circle cx="256" cy="256" r="188" fill="none" stroke="url(#g)" stroke-width="18" opacity=".95"/>
  <path filter="url(#s)" d="M144 190h224v42h-86v154h-52V232h-86v-42Zm39-62h146c26 0 47 21 47 47v10h-48v-5c0-6-5-11-11-11H195c-6 0-11 5-11 11v5h-48v-10c0-26 21-47 47-47Z" fill="url(#g)"/>
  <path d="M154 342h204" stroke="#f6f3ea" stroke-width="18" stroke-linecap="round" opacity=".9"/>
</svg>
